PathFileType	4	(X/Y/Z)	Patient4_TMGait_0pt2_01_left_23.trc.trc
DataRate	CameraRate	NumFrames	NumMarkers	Units	OrigDataRate	OrigDataStartFrame	OrigNumFrames
44.025157232704	44.025157232704	5	33	mm	44.025157232704	124	       141
Frame#	Time	Sacral			L.Shoulder			Chest			R.Shoulder			Neck			R.ASIS			L.ASIS			R.Thigh.Superior			R.Thigh.Lateral			R.Thigh.Inferior			R.Patella			L.Thigh.Superior			L.Thigh.Lateral			L.Thigh.Inferior			L.Patella			L.Shank.Superior			L.Shank.Lateral			L.Shank.Inferior			R.Shank.Superior			R.Shank.Lateral			R.Shank.Inferior			R.Heel			R.Midfoot.Superior			R.Midfoot.Lateral			R.Toe			L.Heel			L.Midfoot.Lateral			L.Midfoot.Superior			L.Toe			L.Elbow			L.Wrist			R.Elbow			R.Wrist			
		X1	Y1	Z1	X2	Y2	Z2	X3	Y3	Z3	X4	Y4	Z4	X5	Y5	Z5	X6	Y6	Z6	X7	Y7	Z7	X8	Y8	Z8	X9	Y9	Z9	X10	Y10	Z10	X11	Y11	Z11	X12	Y12	Z12	X13	Y13	Z13	X14	Y14	Z14	X15	Y15	Z15	X16	Y16	Z16	X17	Y17	Z17	X18	Y18	Z18	X19	Y19	Z19	X20	Y20	Z20	X21	Y21	Z21	X22	Y22	Z22	X23	Y23	Z23	X24	Y24	Z24	X25	Y25	Z25	X26	Y26	Z26	X27	Y27	Z27	X28	Y28	Z28	X29	Y29	Z29	X30	Y30	Z30	X31	Y31	Z31	X32	Y32	Z32	X33	Y33	Z33	

124	55.463857142857	854.260198647131	1009.710608558442	597.774557193281	978.092620350795	1423.512733957851	353.860930389904	1128.914705072962	1350.717219413320	469.551417417916	1119.813485002494	1433.321986642695	657.086118982863	1014.660264345361	1488.306101500831	505.715833059048	1102.903667604584	930.197822504475	639.144460890617	1009.576945352528	956.883875730131	381.108992320726	1111.890901038346	724.817140495562	599.136516073373	1037.188279099491	617.473241529642	673.064618658152	1087.825354279309	563.890939797712	575.885752393543	1080.214406096384	472.808825736571	581.394267578193	1080.100442787218	761.545072390819	392.830151058321	1003.738920100238	638.392918046189	328.597909537037	1109.087270299739	572.970175672873	372.417337401112	1122.402906978088	507.544175374877	368.997216429557	1105.286188013367	436.814961150807	353.525511750617	1029.519293711019	314.867858164199	296.732048919317	1112.558271048023	207.073534038910	340.898378095053	1036.385844199601	388.956115225605	592.166506435288	960.071204926967	293.669320710083	661.645681132682	974.857083060703	197.724293760486	590.635230540543	816.760675237881	44.313396725553	572.021519466398	990.226002351298	95.485179144590	597.809948564833	904.081042246484	37.080727902557	641.716053004172	1111.612777860936	41.539629156411	618.269730367698	1014.082210700105	37.454223358645	368.241942483998	1088.606455174676	37.959112347146	288.516276583544	1166.706963711481	106.684785334257	313.536512219057	1296.800631494944	65.165720363018	286.439589027607	810.225536166372	1102.980955597647	328.176308821178	758.405159062631	855.571308024789	399.250017576390	1342.337743006253	1165.964763676804	718.428185530006	1546.747268626739	1197.017933103586	564.098868788610	
125	55.486571428571	853.765284672276	1009.511677719697	593.650711348575	978.160533929397	1422.582072891165	348.990904425399	1128.793485516827	1349.940350047049	465.160900358557	1119.285125765444	1432.880502391627	652.446202236979	1014.391060922370	1487.869005822890	500.803208246287	1102.316646937285	929.900240436715	635.989770479804	1009.674413742412	955.988195917307	377.697045335734	1110.866875297857	724.261855823366	596.369851142607	1035.769730673829	617.291783474471	670.559037810040	1086.232557241748	563.232462375427	573.646151024682	1078.229324584668	472.058836711141	579.490760005508	1079.849989334790	760.059578811524	389.750313173226	1002.196935682219	637.087873021216	326.622817241595	1107.316258052758	571.499974413204	370.406530164750	1119.438905412193	505.978942118665	367.591920351833	1102.714737565342	435.325111735209	352.156517407520	1026.840386280020	313.469794168151	295.897829300124	1109.470709866768	205.768651462912	340.706814164918	1033.880218526321	388.478399314914	590.540585420781	957.044988917110	293.956416952616	660.588637524439	971.201872704416	197.578474750246	590.016109623287	812.315782735272	44.548344462633	572.052196830894	985.800569322286	95.456847649682	597.678811348686	899.639505241684	37.128995308470	641.656634682287	1107.151076934707	41.372241718354	618.298674844350	1010.014274716979	37.547318672120	368.483849809460	1084.706970380688	37.272523121436	288.854355700383	1163.350365111255	105.071445521577	314.126262216355	1293.119568806450	62.238755822925	287.455996931067	811.718477611918	1101.171632089563	322.643839828134	760.501606606062	853.465801147360	393.007759383675	1343.575077084597	1167.397851206855	711.463930147532	1546.718727290656	1201.768362443311	556.120707218927	
126	55.509285714286	853.443498975839	1009.536883603209	589.152290515658	978.322665426901	1421.957104165937	343.902602540073	1128.758317288908	1349.503186845774	460.570376021679	1118.745364565439	1432.715153301743	647.651505917042	1014.136901535427	1487.671346080936	495.675671230395	1101.880391278782	929.797134506626	632.475483757436	1009.974997905049	955.414647410066	373.921247112897	1109.756702426692	723.798598084828	593.307884847337	1034.200368576498	617.305289841544	667.872409560893	1084.367965514308	562.682066184541	571.235245153655	1075.935607432977	471.484917734182	577.481027930103	1080.081386765220	759.131253793163	386.566759535199	1001.555074794735	636.243625038552	324.290350117167	1106.318215399663	570.460096489285	368.283161680882	1117.420274965179	504.721295783224	365.951235317265	1100.788493167873	434.051675786604	350.655234389838	1024.430281559444	312.467239727540	294.855426929882	1106.223100684542	204.572114647300	340.446690801153	1031.177315903864	388.195826902081	588.877799645779	953.829296142419	294.402986558679	659.479585881790	967.465631407742	197.568576620586	589.374863858832	807.880568673288	44.875022072424	572.087393582948	981.409121940715	95.454322352367	597.538687521920	895.217408758465	37.228217273376	641.590176269421	1102.696631035386	41.195300438690	618.332589626160	1005.320998381762	37.739617252723	368.791925039382	1080.073479724890	36.712789864546	289.154823899563	1159.373022724359	103.549856146025	314.609748734779	1288.780909555210	59.375609564620	288.138992302656	813.520467880413	1099.599258216056	316.355559618908	763.120203247540	851.435942411153	385.481985473034	1344.112161141814	1168.572960182048	705.127886890060	1546.456706984627	1205.196884386378	549.175941583424	
127	55.532000000000	853.251280541772	1009.791801384622	584.244235934644	978.582489490296	1421.667540767969	338.632512104074	1128.795638504729	1349.409747262675	455.817204088294	1118.181111094574	1432.822109103314	642.740124799265	1013.894746870549	1487.725099928846	490.383013091667	1101.534159381150	929.895565534330	628.594286319817	1010.467283575013	955.177456715962	369.756562962174	1108.493822159495	723.445169996164	589.977810057323	1032.407555939456	617.538960434503	665.024745304505	1082.181635159345	562.264195339135	568.688310285939	1073.283987352951	471.115513677003	575.400520074318	1080.716465518889	758.739295832284	383.247578180463	1001.710132945063	635.828436485248	321.578039641924	1105.995580013236	569.816506364126	366.016901951439	1116.265138768463	503.771403842966	364.098519706473	1099.480889957574	433.008943007884	349.032297791340	1022.397842714723	311.817365104969	293.557558076825	1102.980314775682	203.511181901192	340.100502234800	1028.248025424567	388.136327027808	587.210248184974	950.389116756826	295.026885417748	658.328289703902	963.632812377821	197.716337409528	588.719875545639	803.449857508515	45.329827519374	572.126018187714	977.052357265810	95.489373994604	597.396567064148	890.807845230245	37.406377531562	641.520378193684	1098.240130005968	41.005679466834	618.371427163762	1000.322792526282	37.964938156275	369.079044192020	1075.061082769467	36.282695600539	289.368193320984	1155.044108421444	102.197770382755	314.970595174826	1284.100285242952	56.779067938990	288.529054868299	815.560180283847	1098.345107206811	309.398858243771	766.159218054007	849.589315192954	376.832678579214	1344.072498218370	1169.550299117263	699.410592368765	1546.092891423366	1207.485488390840	543.240427861121	
128	55.554714285714	853.139229347463	1010.248223431819	578.882725403673	978.949856833869	1421.706442578386	333.198193747397	1128.886440576591	1349.637879969823	450.941145692880	1117.548742456928	1433.173172282543	637.748080688690	1013.653605324719	1488.017583210710	484.959785753452	1101.217739341192	930.187638033306	624.355403992579	1011.153366234756	955.250849264058	365.190667056714	1107.062933387083	723.215130367466	586.415966942578	1030.371558087197	617.998505495739	662.025073619091	1079.702720681225	561.992737066259	566.034876892622	1070.308081962283	470.955697220466	573.270407344342	1081.666324213168	758.798158533710	379.752091951087	1002.499730143271	635.760058387490	318.490693397541	1106.208501308783	569.493523485282	363.580154327113	1115.828914830112	503.086011281196	362.058254622535	1098.702672547465	432.172472170460	347.294540997297	1020.764594094522	311.449286546116	292.001747436212	1099.828947057019	202.588331289598	339.668859878468	1025.121884360097	388.305578732852	585.551295787895	946.737079755122	295.840641310276	657.132719118009	959.713908278261	198.034487396573	588.053432467882	799.018860159133	45.959238268999	572.166574347911	972.730705974483	95.575148090308	597.259254228261	886.401907549559	37.697011705146	641.450437222330	1093.769986797992	40.797612544020	618.414685017446	995.242865112372	38.178686037990	369.297274802591	1069.923256445608	35.977934167044	289.479553943138	1150.552891430567	101.057810540587	315.219118129396	1279.298038363027	54.565912532783	288.689581901841	817.791949121843	1097.442716930717	301.847629472616	769.538569574850	847.991033696069	367.218411165837	1343.520530560096	1170.347171422446	694.270223933839	1545.689517701895	1208.765063960761	538.280297613488	
